<?xml version="1.0" encoding="UTF-8" standalone="no"?><!-- Generator: Gravit.io --><svg xmlns="http://www.w3.org/2000/svg" xmlns:xlink="http://www.w3.org/1999/xlink" style="isolation:isolate" viewBox="297.542 26.134 2613.958 545.733" width="2613.958pt" height="545.733pt"><defs><clipPath id="_clipPath_1RYOeRBSbPkYcUX5Rnet7winWgY08jqu"><rect x="297.542" y="26.134" width="2613.958" height="545.733"/></clipPath></defs><g clip-path="url(#_clipPath_1RYOeRBSbPkYcUX5Rnet7winWgY08jqu)"><rect x="884" y="166" width="65" height="346" transform="matrix(1,0,0,1,0,0)" fill="rgb(255,255,255)"/><rect x="862.5" y="425.75" width="65" height="106.5" transform="matrix(0,-1,1,0,416,1374)" fill="rgb(255,255,255)"/><rect x="862.5" y="137.785" width="65" height="106.5" transform="matrix(0,-1,1,0,703.965,1086.035)" fill="rgb(255,255,255)"/><rect x="297.542" y="152" width="55" height="360" transform="matrix(1,0,0,1,0,0)" fill="rgb(255,255,255)"/><rect x="318.292" y="425.75" width="65" height="106.5" transform="matrix(0,1,-1,0,829.792,128.208)" fill="rgb(255,255,255)"/><rect x="318.292" y="131.25" width="65" height="106.5" transform="matrix(0,1,-1,0,535.292,-166.292)" fill="rgb(255,255,255)"/><rect x="300" y="152" width="65" height="350" transform="matrix(1,0,0,1,0,0)" fill="rgb(255,255,255)"/><circle vector-effect="non-scaling-stroke" cx="774.4999999999998" cy="162.4999999999999" r="27.5" fill="rgb(255,255,255)"/><path d=" M 416 327 C 416 230.415 494.415 152 591 152 C 687.585 152 766 230.415 766 327 C 766 423.585 687.585 502 591 502 C 494.415 502 416 423.585 416 327 Z  M 481 325 C 481 264.289 530.289 215 591 215 C 651.711 215 701 264.289 701 325 C 701 385.711 651.711 435 591 435 C 530.289 435 481 385.711 481 325 Z " fill-rule="evenodd" fill="rgb(255,255,255)"/><rect x="743.5" y="176.017" width="57" height="27.5" transform="matrix(0.574,-0.819,0.819,0.574,173.751,713.307)" fill="rgb(255,255,255)"/><g clip-path="url(#_clipPath_fipi5Ik8wa6SZNHBe5OscI2uOUzGhInf)"><text transform="matrix(1,0,0,1,1054.5,498.634)" style="font-family:'Poppins';font-weight:700;font-size:450px;font-style:normal;fill:#ffffff;stroke:none;">CAPTUR</text></g><defs><clipPath id="_clipPath_fipi5Ik8wa6SZNHBe5OscI2uOUzGhInf"><rect x="0" y="0" width="1857" height="545.733" transform="matrix(1,0,0,1,1054.5,26.134)"/></clipPath></defs></g></svg>