<?xml version="1.0" encoding="UTF-8" standalone="no"?><!-- Generator: Gravit.io --><svg xmlns="http://www.w3.org/2000/svg" xmlns:xlink="http://www.w3.org/1999/xlink" style="isolation:isolate" viewBox="297.542 135 641.458 377" width="641.458pt" height="377pt"><defs><clipPath id="_clipPath_1K6NSbCC4Yj2FyhLdQjZYu8b48MKU2Wx"><rect x="297.542" y="135" width="641.458" height="377"/></clipPath></defs><g clip-path="url(#_clipPath_1K6NSbCC4Yj2FyhLdQjZYu8b48MKU2Wx)"><rect x="884" y="152" width="55" height="360" transform="matrix(1,0,0,1,0,0)" fill="rgb(255,255,255)"/><rect x="858.25" y="431.25" width="55" height="106.5" transform="matrix(0,-1,1,0,401.25,1370.25)" fill="rgb(255,255,255)"/><rect x="858.25" y="126.25" width="55" height="106.5" transform="matrix(0,-1,1,0,706.25,1065.25)" fill="rgb(255,255,255)"/><rect x="297.542" y="152" width="55" height="360" transform="matrix(1,0,0,1,0,0)" fill="rgb(255,255,255)"/><rect x="323.292" y="431.25" width="55" height="106.5" transform="matrix(0,1,-1,0,835.292,133.708)" fill="rgb(255,255,255)"/><rect x="323.292" y="126.25" width="55" height="106.5" transform="matrix(0,1,-1,0,530.292,-171.292)" fill="rgb(255,255,255)"/><rect x="300" y="152" width="55" height="350" transform="matrix(1,0,0,1,0,0)" fill="rgb(255,255,255)"/><circle vector-effect="non-scaling-stroke" cx="774.4999999999998" cy="162.4999999999999" r="27.5" fill="rgb(255,255,255)"/><path d=" M 414 327 C 414 230.415 492.415 152 589 152 C 685.585 152 764 230.415 764 327 C 764 423.585 685.585 502 589 502 C 492.415 502 414 423.585 414 327 Z  M 469 327 C 469 260.77 522.77 207 589 207 C 655.23 207 709 260.77 709 327 C 709 393.23 655.23 447 589 447 C 522.77 447 469 393.23 469 327 Z " fill-rule="evenodd" fill="rgb(255,255,255)"/><rect x="743.5" y="176.017" width="57" height="27.5" transform="matrix(0.574,-0.819,0.819,0.574,173.751,713.307)" fill="rgb(255,255,255)"/></g></svg>