<?xml version="1.0" encoding="UTF-8" standalone="no"?><!-- Generator: Gravit.io --><svg xmlns="http://www.w3.org/2000/svg" xmlns:xlink="http://www.w3.org/1999/xlink" style="isolation:isolate" viewBox="300 131 639 371" width="639pt" height="371pt"><defs><clipPath id="_clipPath_8tZrKPTfNC9gk3RqEG6cpCQFqUi9nD3S"><rect x="300" y="131" width="639" height="371"/></clipPath></defs><g clip-path="url(#_clipPath_8tZrKPTfNC9gk3RqEG6cpCQFqUi9nD3S)"><rect x="894" y="152" width="45" height="350" transform="matrix(1,0,0,1,0,0)" fill="rgb(0,0,0)"/><rect x="869.5" y="432.5" width="45" height="94" transform="matrix(0,-1,1,0,412.5,1371.5)" fill="rgb(0,0,0)"/><rect x="869.5" y="127.5" width="45" height="94" transform="matrix(0,-1,1,0,717.5,1066.5)" fill="rgb(0,0,0)"/><rect x="300" y="152" width="45" height="350" transform="matrix(1,0,0,1,0,0)" fill="rgb(0,0,0)"/><rect x="324.5" y="432.5" width="45" height="94" transform="matrix(0,1,-1,0,826.5,132.5)" fill="rgb(0,0,0)"/><circle vector-effect="non-scaling-stroke" cx="794.4999999999998" cy="158.49999999999997" r="27.5" fill="rgb(0,0,0)"/><rect x="324.5" y="127.5" width="45" height="94" transform="matrix(0,1,-1,0,521.5,-172.5)" fill="rgb(0,0,0)"/><path d=" M 414 327 C 414 230.415 492.415 152 589 152 C 685.585 152 764 230.415 764 327 C 764 423.585 685.585 502 589 502 C 492.415 502 414 423.585 414 327 Z  M 459 327 C 459 255.251 517.251 197 589 197 C 660.749 197 719 255.251 719 327 C 719 398.749 660.749 457 589 457 C 517.251 457 459 398.749 459 327 Z " fill-rule="evenodd" fill="rgb(0,0,0)"/><rect x="763.5" y="172.017" width="57" height="27.5" transform="matrix(0.574,-0.819,0.819,0.574,185.556,727.984)" fill="rgb(0,0,0)"/></g></svg>